<?xml version="1.0" encoding="UTF-8"?>
<svg id="Calque_2" data-name="Calque 2" xmlns="http://www.w3.org/2000/svg" viewBox="0 0 404.22 337.5">
  <defs>
    <style>
      .cls-1 {
        fill: #f20111;
      }

      .cls-2 {
        fill: #020202;
      }
    </style>
  </defs>
  <g id="Calque_1-2" data-name="Calque 1">
    <g>
      <path class="cls-2" d="M39.86,207.35c7.12-23.07,23.15-43.54,45.22-55.65,13.42-7.36,27.81-12,43.63-12.01l156.6-.11c14.8-.01,28.12-6.38,32.9-20.05l8.2-23.45c2.07-5.92,3.52-11.68,2.05-18.02-1.26-5.48-6.97-10.19-13.7-10.19h-152.26c-10.96,0-19.27,7.02-22.69,16.11-.55,1.45-1.01,3.82-2.33,4.56l-63.91-.07c10.83-35.91,20.87-64.82,57.67-81.97,7.78-2.96,15.29-6.12,23.81-6.18l49.35-.32,143.87.03c8.57,0,15.65,1.71,23.1,5.18,19.27,8.98,31.87,26.33,32.75,46.85.36,8.51-.28,16.83-3.12,25.09l-21.68,63.24c-11.84,34.55-51.49,66.42-91.02,66.51l-158.48.38c-10.13.02-18.55,4.97-21.44,14.18l-6.29,20.07-62.03,27.1-22.14,9.68,21.92-70.99Z"/>
      <polygon class="cls-1" points="0 337.5 13.84 292.09 45.72 278.85 77.57 265.92 96.77 258.82 80.85 311.18 0 337.5"/>
    </g>
  </g>
</svg>