<?xml version="1.0" encoding="UTF-8"?>
<svg id="Calque_2" data-name="Calque 2" xmlns="http://www.w3.org/2000/svg" viewBox="0 0 1139.14 187.48">
  <defs>
    <style>
      .cls-1 {
        fill: #0a0a0a;
      }

      .cls-2 {
        fill: #f00010;
      }
    </style>
  </defs>
  <g id="Calque_1-2" data-name="Calque 1">
    <g>
      <path class="cls-1" d="M194.88,65.19c1.23-1.82,1.45-4.8,1.8-6.65.12-.62.41-1.8.74-2.33,1.27-2.09,2.03-5.74,2.54-8.26.18-.86.56-1.97.82-2.9,1.76-6.23,3.05-13.54.64-19.62l-.67-2.47c-1.81-6.73-5.9-13.05-12.39-17.01-4.57-2.79-10.43-5.37-16.33-5.39l-100.04-.19c-4.66,0-9.07,2.37-12.23,4.52l-1.63,1.11c-4.81,3.28-8.29,8.28-9.86,13.74l-1.58,5.46-4.02,12.95,110.06.09c3.54,0,6.27,2.27,7.86,4.13,2.47,2.89,2.13,6.43,1.83,9.78l-3.43,10.3-1.27,3.12-2.45,3.27c-.36.52-1.27,1.29-1.74,1.81-.36.4-1.04,1.12-1.49,1.4-4.06,2.55-8.46,4.91-13.83,4.94l-81.4.46c-10.04.06-18.67,5.97-25.35,12.29l-2.63,4.21c-.73,1.17-.94,2.2-1.49,3.28-.9,1.77-1.08,3.71-1.61,5.51l-2.65,9.04-1.56,5.48-1.62,5.89-1.55,5.35c-1.05,3.6-2.31,7.12-2.92,10.86-.17.33-.3.62-.41.91-.98,2.1-2.19,4.39-2.04,7.26l49.54-20.78c1.29-.54,3.69-13.9,13.57-13.93l64.57-.24c5.51-.02,10.23-1.49,14.85-2.92,7.86-2.45,15.18-6.39,21.08-12.2,3.49-3.44,7.03-6.98,9.52-11.3l1.24-2.16c2.66-4.63,4.83-9.79,6.26-14.97.33-1.18.61-2.83,1.28-3.82Z"/>
      <path class="cls-1" d="M601.71,42.14l-41.97.49c-8.08.09-14.6,5.42-21.88,8.66l-.11-.23,2.15-8.51c.14-.57-1.45-.81-1.33.24l-35.19-.78-3.02,12.66s.02-.03.04-.03c.06.03.12.05.18.08-.07.14-.13.28-.2.44-.03-.13-.05-.25-.06-.34l-.5,2.11c-.14.39-.24.74-.32,1.07l-8.02,26.97-5.3,22.1c-.06.11-.13.25-.18.43-.1.25-.18.5-.23.74l-3.25,9.08-3.83,14.82c-2.38,4.29-2.96,9.6-4.34,14.39l-4.81,16.76c-.29.99-.89,1.94-.37,3.49l36.14-.35,5.83-20.47,7.37-26.89,5.81-19.11,6.36-22.08c.95-.36,2.26-.81,3.04-1.45l49.24-.11c2.53,0,4.7,1.39,5.86,2.73,1.75,2.02,1.74,4.52,1.33,6.91-.67.43-.68,1.56-.85,2.16l-9.59,32.46-13.66,45.96,37.77-.04c1.26-.97,1.06-3.49,1.38-4.58l7.15-24.72,8.35-28.64,6.86-23.54c2.79-9.57,4.46-20.54.06-29.92-4.53-9.65-15.77-13.09-25.92-12.97ZM522.35,104.74c.06-.14.13-.26.19-.4,0,.2-.02.4-.02.61-.06-.08-.11-.14-.17-.21ZM558.63,75.49c.3.02.6.04.9.06h-.82s-.06-.04-.09-.06ZM585.02,105.24s-.01.01-.02.02c0,0,0-.02.01-.03,0,0,0,0,0,0Z"/>
      <polygon class="cls-1" points="963.25 95.38 963.25 95.38 963.25 95.38 963.25 95.38"/>
      <path class="cls-2" d="M55.79,138.43c-1.63-.05-3.06.5-4.15,1.63-.37.38-1.05.61-1.51.86-1.76-.39-2.94.84-4.3,1.51-2.35,1.18-5.11,1.25-7.01,3.4-1.58-.18-3.11.33-4.19,1.49l-3.91,1.7c-1.57-.14-3.12.35-4.13,1.57-.65.13-1.25.44-1.81.94-3.13.35-6.58,2.51-9.6,3.78-1.8.76-4.15.91-5.57,2.64-2.15,2.61-2.25,6.45-3.37,9.6l-.8,2.24-5.44,17.7,51.57-22.32c1.17-.74.79-2.6,1.01-3.29l1.79-5.4,5.88-19.5c-2.2-.57-3.66.4-4.47,1.47Z"/>
      <path class="cls-1" d="M1003.66,43.22l-10.01,2.88c-3.93,1.13-7.69.59-11.01-1.45-1.33-.81-2.61-2.24-4.9-2.13l-10.5,38.67-3.98,14.18c.07,0,.13-.01.2-.01-.03.06-.05.12-.07.18-.04-.06-.09-.1-.13-.16l-6.13,21.83-6.8,23.78v1.43c-1.68,2.89-3.58,9.35-3.31,11.52-1.55,3.84-2.54,7.98-3.93,12.62l37.32.21,6.48-22.51c.14-.38.5-.73.75-1.6l24.44-86.46,3.19-13.03-11.61.06ZM1002.75,43.73c-.14.05-.26.11-.39.18-.04-.07-.07-.14-.11-.21l.5.04ZM991.51,47.01c-.26.02-.51.03-.77.04-.02-.11-.05-.23-.06-.37.28.13.55.23.83.33ZM975.14,53.92c-.03.07-.06.15-.09.23-.04-.06-.07-.11-.12-.17.07-.03.14-.04.21-.06Z"/>
      <path class="cls-1" d="M1002.74,32.44c3.43-.05,6.35-1.07,9.94-.12,1.97.52,4.46.43,6.3-.41l3.49-10.99,6.43-20.68h-40.65s-7.52,28.71-7.52,28.71c-.28,1.22-.94,2.14-.42,3.8l22.43-.3Z"/>
      <path class="cls-1" d="M500.34,54.82l.04-.15s-.04.08-.04.15Z"/>
      <path class="cls-1" d="M1086.39,37.65c.86-2.47,4.28-3.92,7.11-4.99l35.99-.22,9.65-32.44-47.41.3c-1.13-.08-1.98.2-2.59.92-10.21.02-20.2,5.85-27.39,12.61l-1.66,1.83c-1.8,1.99-3.4,4.24-4.87,6.41l-1.54,2.26c-1.65,2.43-3.45,5.23-3.13,8.28-1.39,1.6-4.23,12.64-4.13,15.34-1.8,1.96-1.34,5.89-2.51,6.86-1.49,1.23-4.71-.12-6.54.55-.64.23-.95,1.36-.75,2.27l-8.62,29.01,6.56.45-2.18,9.14-4.83,17.2-5.41,20.26c-.04.13-.06.24-.09.36.01-.13.04-.25.09-.36l-6.74,22.29-3.02,10.51,35.7.24c1.96.01,1.57-2.3,1.85-3.22l2.68-8.77,6.97-25,4.24-14.66,6.26-21.71c1.17-1.48,1.37-3.41,1.65-5.81l39.38.02c2.75-.66,2.24-3.1,2.72-4.74l8.04-27.58h-40.46c-.28-1.36-.06-2.29.04-3.3l4.98-14.34ZM1047.97,42.09s.04.04.07.06c-.02.03-.04.07-.07.1,0-.06,0-.11,0-.16ZM1020.52,140.2c-.08.18-.16.39-.24.6-.03-.17-.07-.34-.12-.51.13-.04.25-.07.36-.09ZM1056.57,138.66s0-.04,0-.06l.04.04s-.03.01-.04.02Z"/>
      <path class="cls-1" d="M833.7,10.49l.18-.65c-.09.23-.15.44-.18.65Z"/>
      <path class="cls-1" d="M831.34,18.8s0,0,0,.01h0s0-.01,0-.01Z"/>
      <path class="cls-1" d="M944.73,54.46c.16-.27.42-.47.67-.61,2.67-1.49,5.4-3.43,7.22-5.92-.32.29-.71.41-1.15.43.37-.15.75-.3,1.15-.43.23-.32.64-.48,1.01-.66,2.32-1.11,4.4-2.76,6.58-5.16l-47.15.12c-2.95,0-4.98,3.47-6.54,4.69l-4.21,3.31-4.76,3.94-9.01,7.5-5.48,4.6-7.62,6.48-5.48,4.98c-1.29,1.17-3.82,2.51-4.83,4.14-.44.72-1.75,1.64-2.39,2.14l-4.15,3.33-3.79,2.58c-1.43.02-3.18.22-4.7-.25-.15-.16-.28-.3-.41-.44l1.97-8.68,8.09-29.26c1.64-3.66,2.52-8.2,3.3-12.18l5-17.74,4.77-16.83c.36-1.26,1.5-2.41,1.36-4.24l-37.9-.14-2.41,9.66-.16,1.74c-.08-.34-.09-.7-.02-1.09l-2.35,8.32c.12.13.24.27.35.4-.04.09-.09.19-.13.29-.06-.23-.13-.46-.22-.69l-9.16,32.42c.03-.1.07-.19.1-.28-.03.09-.07.18-.1.28l-8.1,29.86-.78,2.25-10.49,36.39-8.21,28.36-3.09,10.45c-.72,2.42-2.11,4.88-1.93,7.97l37.22-.13,7.11-23.73c.46-1.53.86-2.83.67-4.16,3.03-4.75,2.73-12.6,6.05-16.56,3.34-3.98,9.15-3.79,13.3-1.96,2.22,2.42,4.54,5,6.35,8.25l1.71,1.61,6.28,8.87,11.34,15.47,5.8,7.89c.67.91.92,2.67,2.52,3.38.61.27.87,1.25,2.46,1.25l42.26-.03c-.51-3.61-2.81-6.1-4.87-9.02l-26.63-37.78c-.52.05-.93-.5-1.03-.81-1.04-3.17-3.67-5.52-5.66-7.97-1.12-2.03-2.32-4.58-4.22-6.21-1.89-1.62-.68-3.17-.92-4.25.51-.4,1.01-.45,1.19-.6l9.78-8.24c-.08-.42.36-.89.83-.56l25.74-21.9c.1-.37.58-.95.94-1.03,1.42-.3,2.49-1.23,3.14-2.51.13-.25.42-.48.62-.66,1.85-.44,3.18-1.79,4.23-3.33.15-.22.57-.54.82-.62,1.74-.58,2.83-2.1,4.1-3.37l.76-.76c1.43-.33,2.54-1.3,3.27-2.56ZM793.42,159.22l-.1,1.12c.01-.34.09-.78.1-1.12ZM857.5,57.85s0-.04,0-.06c0,0,0,0,.01,0l-.02.06ZM799.67,131.75s-.03.09-.05.14c0-.06,0-.1,0-.16.02,0,.03.02.04.03Z"/>
      <path class="cls-1" d="M782.81,47.87c-5.71-4.47-12.44-5.67-20.27-5.67h-65.41c-10.03-.01-19.12,3.28-26.57,8.88-4.18,2.72-7.8,6.01-10.69,9.87l-1.67,2.23c-2.88,3.85-4.45,8.54-5.84,13.1l-1.66,5.43-4.89,17.97-1.59,5.42-6.39,22.17-.82,2.96c-2.55,9.2.37,23.55,5.18,26,.27.14.57.64.73.91h0c3.28,5.45,15.26,9.38,22.12,9.38h38.54s29.54-.07,29.54-.07c5.6-.01,10.61-1.26,15.27-3.36,14.09-6.33,25.23-18.77,28.08-34.11,1.48-1.83,1.55-4.28,2.25-6.72l6.13-21.42,3.97-13.98c3.92-13.8,7.65-29.6-6-38.98ZM653.34,163.61l.08-.09c.1.06.21.11.32.17l-.4-.08ZM684.06,88.84c-.07.22-.14.43-.21.64-.04-.13-.11-.26-.18-.4.13-.07.26-.15.38-.25ZM743.81,119.76v-.03s0,.02.01.02c0,0,0,0-.01,0ZM744.79,114.52c.02-.18.04-.38.06-.6.08.14.15.27.23.39-.1.06-.2.13-.3.21ZM748.99,100.13s0-.02,0-.04c0,.01.02.03.03.04-.01,0-.02,0-.04,0ZM751.32,92.33c.04-.18.08-.36.12-.55.18.02.38.05.59.09-.26.11-.5.26-.71.46ZM752.8,85.1l-4.4,14.93c-.57,1.94-1.18,3.51-1.21,5.44-2.05,3.19-2.34,7.47-3.51,11.07,0,0,0,0,0,0s0,0,0,0l-3.11,9.54c-.83,2.53-4.2,3.62-6.41,5.2h0l-53.22.15c-2.42,0-4.23-1.84-5.08-3.15-1.1-1.7-.99-5.22-.3-7.24l3.34-9.84s0,0,0,0l1.35-7.38c.57-3.11,1.31-6.23,2.46-8.83,2.98-6.74,2.23-11.57,7.99-16.13-.56.25-1.1.29-1.62.15.55-.17,1.1-.23,1.62-.15.13-.25.43-.74.72-.82,1.52-.42,3.18-1.23,5.02-1.56,1.05-.05,2.11-.11,3.16-.15h46.77s4.14.89,4.14.89c2.07,1.98,3.28,4.52,2.29,7.88ZM774.26,135.06s.02-.06.03-.08l.05.08s-.06,0-.09,0Z"/>
      <path class="cls-1" d="M283.85,42.35c-8.21.65-14.94,4.51-21.7,8.17-.64.35-1.56.73-1.79,1.59-.72.03-1.08-.83-.82-1.27l.8-1.37,1.75-7.17-20.3-.03c-6.57-.01-12.88,2.24-16.43,7.14,0,0,0,0,0,0-1.86,2.56-2.66,5.31-3.56,8.64l-9.44,35.15-1.69,5.48-1.41,5.83c-.14.6-.77,1.64-.95,2.26l-6.13,22.67-3.52,11.14c-.09.17-.17.36-.25.58-.07.19-.12.44-.16.72l-3.77,11.92-.53,2.29c-.77,3.32-2.34,6.56-3.02,10.37l37.38-.06,3.16-12.29,5.66-19.57,14.4-50.23c1.38-2.38,2.72-4.48,4.84-6.44l1.66-.62,4.84-1.01,50.78.04,10.08-34.06-39.9.12ZM222.97,55.86c-.06-.1-.12-.2-.19-.3.11-.03.22-.04.32-.05-.05.11-.09.23-.13.36Z"/>
      <path class="cls-1" d="M464.63,47.87c-5.71-4.47-12.44-5.67-20.27-5.67h-65.41c-10.03-.01-19.12,3.28-26.57,8.88-4.18,2.72-7.8,6.01-10.69,9.87l-1.67,2.23c-2.88,3.85-4.45,8.54-5.84,13.1l-1.66,5.43-4.89,17.97-1.59,5.42-6.39,22.17-.82,2.96c-2.55,9.2.37,23.55,5.18,26,.27.14.57.64.73.91h0c3.28,5.45,15.26,9.38,22.12,9.38h38.54s29.54-.07,29.54-.07c5.6-.01,10.61-1.26,15.27-3.36,14.09-6.33,25.23-18.77,28.08-34.11,1.48-1.83,1.55-4.28,2.25-6.72l6.13-21.42,3.97-13.98c3.92-13.8,7.65-29.6-6-38.98ZM335.16,163.61l.08-.09c.1.06.21.11.32.17l-.4-.08ZM365.88,88.84c-.07.22-.14.43-.21.64-.04-.13-.11-.26-.18-.4.13-.07.26-.15.38-.25ZM425.63,119.76v-.03s0,.02.01.02c0,0,0,0-.01,0ZM426.62,114.52c.02-.18.04-.38.06-.6.08.14.15.27.23.39-.1.06-.2.13-.3.21ZM430.82,100.13s0-.02,0-.04c0,.01.02.03.03.04-.01,0-.02,0-.04,0ZM433.14,92.33c.04-.18.08-.36.12-.55.18.02.38.05.59.09-.26.11-.5.26-.71.46ZM434.63,85.1l-4.4,14.93c-.57,1.94-1.18,3.51-1.21,5.44-2.05,3.19-2.34,7.47-3.51,11.07,0,0,0,0,0,0s0,0,0,0l-3.11,9.54c-.83,2.53-4.2,3.62-6.41,5.2h0l-53.22.15c-2.42,0-4.23-1.84-5.08-3.15-1.1-1.7-.99-5.22-.3-7.24l3.34-9.84s0,0,0,0l1.35-7.38c.57-3.11,1.31-6.23,2.46-8.83,2.98-6.74,2.23-11.57,7.99-16.13-.56.25-1.1.29-1.62.15.55-.17,1.1-.23,1.62-.15.13-.25.43-.74.72-.82,1.52-.42,3.18-1.23,5.02-1.56,1.05-.05,2.11-.11,3.16-.15h46.77s4.14.89,4.14.89c2.07,1.98,3.28,4.52,2.29,7.88ZM456.09,135.06s.02-.06.03-.08l.05.08s-.06,0-.09,0Z"/>
    </g>
  </g>
</svg>